<?xml version="1.0" encoding="UTF-8" standalone="no"?>
<!-- Created with Inkscape (http://www.inkscape.org/) -->

<svg
   xmlns:dc="http://purl.org/dc/elements/1.1/"
   xmlns:cc="http://creativecommons.org/ns#"
   xmlns:rdf="http://www.w3.org/1999/02/22-rdf-syntax-ns#"
   xmlns:svg="http://www.w3.org/2000/svg"
   xmlns="http://www.w3.org/2000/svg"
   xmlns:sodipodi="http://sodipodi.sourceforge.net/DTD/sodipodi-0.dtd"
   xmlns:inkscape="http://www.inkscape.org/namespaces/inkscape"
   width="240"
   height="240"
   id="svg3777"
   version="1.1"
   inkscape:version="0.48.2 r9819"
   sodipodi:docname="red-circle.svg"
   inkscape:export-filename="/home/daniel/git/advancedcaching/files/advancedcaching/data/red-target.png"
   inkscape:export-xdpi="15"
   inkscape:export-ydpi="15">
  <defs
     id="defs3779" />
  <sodipodi:namedview
     id="base"
     pagecolor="#ffffff"
     bordercolor="#666666"
     borderopacity="1.0"
     inkscape:pageopacity="0.0"
     inkscape:pageshadow="2"
     inkscape:zoom="0.7"
     inkscape:cx="-116.56931"
     inkscape:cy="117.03001"
     inkscape:document-units="px"
     inkscape:current-layer="layer1"
     showgrid="false"
     inkscape:window-width="1680"
     inkscape:window-height="997"
     inkscape:window-x="0"
     inkscape:window-y="24"
     inkscape:window-maximized="1"
     fit-margin-top="0"
     fit-margin-left="0"
     fit-margin-right="0"
     fit-margin-bottom="0" />
  <metadata
     id="metadata3782">
    <rdf:RDF>
      <cc:Work
         rdf:about="">
        <dc:format>image/svg+xml</dc:format>
        <dc:type
           rdf:resource="http://purl.org/dc/dcmitype/StillImage" />
        <dc:title></dc:title>
      </cc:Work>
    </rdf:RDF>
  </metadata>
  <g
     inkscape:label="Ebene 1"
     inkscape:groupmode="layer"
     id="layer1"
     transform="translate(-155.70773,-449.89493)">
    <g
       id="g2996"
       transform="translate(2.8531941,-36.042115)">
      <path
         inkscape:connector-curvature="0"
         id="path4295"
         d="m 355.69099,523.01773 c -0.3574,-0.3574 -0.72192,-0.68675 -1.08276,-1.03857 l -81.9139,81.9139 -81.75922,-81.75922 c -0.30456,0.29811 -0.60388,0.60389 -0.90598,0.90598 -45.74714,45.74714 -45.76923,119.91473 -0.0221,165.66186 0.35368,0.35368 0.70362,0.71246 1.06066,1.06066 l 81.62664,-81.62664 81.75922,81.75923 c 0.40977,-0.39815 0.83211,-0.78791 1.23744,-1.19325 45.74714,-45.74713 45.74714,-119.93682 0,-165.68395 z"
         style="fill:#fc0000;fill-opacity:0.54117647;stroke:none" />
      <path
         transform="translate(31.068815,81.789154)"
         d="m 248.57143,524.14789 c 0,3.74764 -3.03806,6.78571 -6.78571,6.78571 -3.74765,0 -6.78571,-3.03807 -6.78571,-6.78571 0,-3.74765 3.03806,-6.78572 6.78571,-6.78572 3.74765,0 6.78571,3.03807 6.78571,6.78572 z"
         sodipodi:ry="6.7857141"
         sodipodi:rx="6.7857141"
         sodipodi:cy="524.14789"
         sodipodi:cx="241.78572"
         id="path3785"
         style="fill:#000000;fill-opacity:1;stroke:#000000;stroke-width:3;stroke-linecap:square;stroke-miterlimit:4;stroke-opacity:1;stroke-dasharray:none;stroke-dashoffset:0"
         sodipodi:type="arc" />
    </g>
  </g>
</svg>
